# File created by Blade
# Date/Time:  Wed Jan 21 16:09:38 2015
# Frame Rate: 120.000 fps
#------------------------------------------------------
:FULLY-SPECIFIED
:DEGREES
589
root 12.036888 33.102468 -22.286131 -183.252008 74.904367 -243.691425
Spine 64.019499 -14.119971 4.212333
Head -37.019283 -3.923720 6.490822
LeftShoulder -7.295305 -34.932082 22.028459
LeftArm -37.983411 -7.505428 -21.249656
LeftForeArm -40.148916 -0.000000 -4.798384
LeftHand -10.336710 -0.000000 -0.144744
LeftHandThumb1 -26.253704 0.000000 33.147579
RightShoulder -10.656370 -1.277116 -12.358580
RightArm -43.138812 47.426767 13.201646
RightForeArm 16.713507 0.000000 10.769698
RightHand -20.634159 -0.000000 -16.837707
RightHandThumb1 -24.326973 -0.000000 -32.862282
LeftUpLeg -34.825940 -11.800458 -17.953490
LeftLeg -17.783647 -0.000000 0.000000
LeftFoot -6.043676 26.479326 15.657523
LeftToeBase -141.298646 -0.000000 0.000000
RightUpLeg -82.079912 -9.569542 -8.710576
RightLeg -4.979851 -0.000000 0.000000
RightFoot 11.406743 -28.323386 0.104152
RightToeBase 28.200235 -0.000000 -0.000000
590
root 12.043160 33.105244 -22.299505 -182.989136 74.870468 -243.112509
Spine 63.868029 -14.149467 4.242853
Head -37.021674 -3.865582 6.381890
LeftShoulder -7.357002 -35.039570 22.057159
LeftArm -37.974599 -7.391047 -21.265664
LeftForeArm -40.059131 0.000000 -4.736690
LeftHand -10.371329 -0.000000 0.075735
LeftHandThumb1 -26.253704 0.000000 33.147579
RightShoulder -10.623328 -1.258453 -12.283153
RightArm -43.145375 47.394196 13.157266
RightForeArm 16.717094 -0.000000 10.863245
RightHand -20.758003 -0.000000 -17.094714
RightHandThumb1 -24.326973 -0.000000 -32.862282
LeftUpLeg -34.494384 -11.747667 -17.907341
LeftLeg -17.834712 -0.000000 0.000000
LeftFoot -5.994697 26.468269 15.655827
LeftToeBase -141.336754 -0.000000 0.000000
RightUpLeg -81.631532 -9.564990 -8.737504
RightLeg -5.153604 -0.000000 0.000000
RightFoot 11.460143 -28.365931 -0.029146
RightToeBase 27.976784 -0.000000 -0.000000
591
root 12.066563 33.105003 -22.305845 -182.926921 75.019439 -242.552869
Spine 63.954788 -13.936848 4.279752
Head -37.187778 -3.816492 6.341986
LeftShoulder -7.342443 -35.117712 22.051022
LeftArm -37.908616 -7.383112 -21.251701
LeftForeArm -39.993530 -0.000000 -4.749167
LeftHand -10.310774 -0.000000 0.101324
LeftHandThumb1 -26.253704 0.000000 33.147579
RightShoulder -10.682723 -1.212241 -12.232200
RightArm -43.202747 47.430914 13.117182
RightForeArm 16.448845 0.000000 10.915864
RightHand -20.931615 -0.000000 -17.109308
RightHandThumb1 -24.326973 -0.000000 -32.862282
LeftUpLeg -33.957401 -11.450254 -17.867114
LeftLeg -17.990706 -0.000000 0.000000
LeftFoot -5.948714 26.484029 15.721823
LeftToeBase -141.349814 -0.000000 0.000000
RightUpLeg -81.012376 -9.336970 -8.712144
RightLeg -5.357260 -0.000000 0.000000
RightFoot 11.557394 -28.446764 -0.072394
RightToeBase 28.205114 -0.000000 -0.000000
592
root 12.084179 33.109525 -22.316683 -182.747462 75.042178 -241.927726
Spine 63.917865 -13.898675 4.271382
Head -37.244493 -3.745675 6.293790
LeftShoulder -7.396795 -35.278637 22.081731
LeftArm -37.961775 -7.331796 -21.143361
LeftForeArm -39.924299 0.000000 -4.728296
LeftHand -10.311229 -0.000000 0.094189
LeftHandThumb1 -26.253704 0.000000 33.147579
RightShoulder -10.641534 -1.175880 -12.208910
RightArm -43.189686 47.415460 13.175111
RightForeArm 16.399388 -0.000000 10.974872
RightHand -21.013118 -0.000000 -17.176388
RightHandThumb1 -24.326973 -0.000000 -32.862282
LeftUpLeg -33.488424 -11.269612 -17.843779
LeftLeg -18.056805 -0.000000 0.000000
LeftFoot -5.924556 26.441049 15.694778
LeftToeBase -141.405423 -0.000000 0.000000
RightUpLeg -80.436580 -9.253069 -8.715379
RightLeg -5.529053 -0.000000 0.000000
RightFoot 11.619190 -28.521056 -0.119005
RightToeBase 28.249156 -0.000000 -0.000000
593
root 12.091998 33.115320 -22.326992 -182.545274 74.994787 -241.322202
Spine 63.791521 -13.955561 4.197057
Head -37.300835 -3.579835 6.230076
LeftShoulder -7.478069 -35.228304 22.128660
LeftArm -38.025495 -7.399302 -21.034110
LeftForeArm -39.906771 -0.000000 -4.676206
LeftHand -10.325196 -0.000000 -0.007804
LeftHandThumb1 -26.253704 0.000000 33.147579
RightShoulder -10.572920 -1.132235 -12.233051
RightArm -43.135379 47.417081 13.280639
RightForeArm 16.291949 -0.000000 10.997637
RightHand -21.111048 -0.000000 -17.266786
RightHandThumb1 -24.326973 -0.000000 -32.862282
LeftUpLeg -33.092936 -11.188037 -17.807418
LeftLeg -18.061944 -0.000000 0.000000
LeftFoot -5.900689 26.417820 15.670258
LeftToeBase -141.493207 -0.000000 0.000000
RightUpLeg -79.918325 -9.234310 -8.795986
RightLeg -5.657932 -0.000000 0.000000
RightFoot 11.664063 -28.680827 -0.120123
RightToeBase 27.906920 -0.000000 -0.000000
594
root 12.099138 33.120660 -22.339105 -182.498352 74.992359 -240.836878
Spine 63.640566 -13.926324 4.142856
Head -37.305604 -3.498813 6.189030
LeftShoulder -7.541255 -35.157403 22.147609
LeftArm -37.960765 -7.458856 -20.967794
LeftForeArm -39.899118 -0.000000 -4.745359
LeftHand -10.321288 -0.000000 0.052587
LeftHandThumb1 -26.253704 0.000000 33.147579
RightShoulder -10.559963 -1.108986 -12.287458
RightArm -43.079554 47.418859 13.432866
RightForeArm 16.240728 -0.000000 11.009186
RightHand -21.107347 -0.000000 -17.386222
RightHandThumb1 -24.326973 -0.000000 -32.862282
LeftUpLeg -32.662550 -11.055993 -17.800803
LeftLeg -18.077931 -0.000000 0.000000
LeftFoot -5.869069 26.402330 15.669514
LeftToeBase -141.520390 -0.000000 0.000000
RightUpLeg -79.393141 -9.167487 -8.900925
RightLeg -5.750984 -0.000000 0.000000
RightFoot 11.731249 -28.831540 -0.107982
RightToeBase 27.820556 -0.000000 -0.000000
